/* XPM */
static char *_16e7cb8eb6840a1e6d5326fab6a0593JbbtWfNF12AbOxOR[] = {
/* columns rows colors chars-per-pixel */
"32 32 245 2 ",
"   c #489848",
".  c gray2",
"X  c #060605",
"o  c #060606",
"O  c #0A0709",
"+  c #0B070B",
"@  c #0C080C",
"#  c #0D080C",
"$  c #0D090D",
"%  c #120D09",
"&  c #170E0B",
"*  c #10080F",
"=  c #10090F",
"-  c #130D0C",
";  c #1A130B",
":  c #1D130A",
">  c #120811",
",  c #130B13",
"<  c #160915",
"1  c #180A17",
"2  c #1A0F19",
"3  c #1C1213",
"4  c #191510",
"5  c #181613",
"6  c #1F131F",
"7  c #1F151E",
"8  c #1A1918",
"9  c #261C12",
"0  c #2A191E",
"q  c #24201C",
"w  c #3E261D",
"e  c #201420",
"r  c #221421",
"t  c #241423",
"y  c #251423",
"u  c #291627",
"i  c #30142E",
"p  c #311630",
"a  c #331631",
"s  c #351431",
"d  c #341532",
"f  c #371534",
"g  c #391B35",
"h  c #381E36",
"j  c #3D193A",
"k  c #272726",
"l  c gray16",
"z  c #3B203B",
"x  c #3C213A",
"c  c #3C223B",
"v  c #373735",
"b  c #553214",
"n  c #472928",
"m  c #4D2B29",
"M  c #562D2C",
"N  c #513324",
"B  c #573A21",
"V  c #40233F",
"C  c #5B3330",
"Z  c #5F3531",
"A  c #643731",
"S  c #6F3C39",
"D  c #6E3B3F",
"F  c #72431F",
"G  c #78451B",
"H  c #5E4B39",
"J  c #6D443E",
"K  c #72433A",
"L  c #78473D",
"P  c #481B44",
"I  c #541D50",
"U  c #5A1F56",
"Y  c #492347",
"T  c #482545",
"R  c #492646",
"E  c #4F204A",
"W  c #4E224A",
"Q  c #4F284C",
"!  c #542D42",
"~  c #5E2C40",
"^  c #51264E",
"/  c #5D3149",
"(  c #542351",
")  c #552450",
"_  c #542651",
"`  c #572750",
"'  c #582153",
"]  c #582353",
"[  c #5B2757",
"{  c #522950",
"}  c #542951",
"|  c #542A51",
" . c #592A56",
".. c #5A2C57",
"X. c #5C2959",
"o. c #5B2D58",
"O. c #5F2E5C",
"+. c #683840",
"@. c #723147",
"#. c #61235C",
"$. c #64245E",
"%. c #61295D",
"&. c #682B58",
"*. c #603456",
"=. c #652D62",
"-. c #6A2865",
";. c #692E65",
":. c #6E2969",
">. c #72296C",
",. c #732A6D",
"<. c #722D6D",
"1. c #722E6E",
"2. c #693360",
"3. c #6B3164",
"4. c #723D63",
"5. c #752A70",
"6. c #772A71",
"7. c #762D71",
"8. c #772D71",
"9. c #772E72",
"0. c #792C73",
"q. c #792D73",
"w. c #7D2976",
"e. c #7A2D74",
"r. c #7B2D75",
"t. c #7B2E75",
"y. c #7C2C76",
"u. c #7E2D78",
"i. c #7F2D79",
"p. c #7F2E7A",
"a. c #4F4943",
"s. c #554B42",
"d. c #504A4A",
"f. c #565656",
"g. c #7B5C42",
"h. c #685551",
"j. c #6C4067",
"k. c #795264",
"l. c #804A1E",
"z. c #996336",
"x. c #9E683B",
"c. c #AA6832",
"v. c #AC6B36",
"b. c #B57037",
"n. c #B87339",
"m. c #BA743A",
"M. c #BC753B",
"N. c #813B49",
"B. c #843A4F",
"V. c #893D50",
"C. c #802979",
"Z. c #804A43",
"A. c #904D4D",
"S. c #8C4852",
"D. c #88435D",
"F. c #9F4D5B",
"G. c #985952",
"H. c #856D59",
"J. c #97785E",
"K. c #A47248",
"L. c #B07748",
"P. c #A26058",
"I. c #AF6358",
"U. c #AF7C51",
"Y. c #80486E",
"T. c #874C6E",
"R. c #984866",
"E. c #874F73",
"W. c #83477D",
"Q. c #A75A60",
"!. c #B05F65",
"~. c #BA5F6D",
"^. c #BE5F71",
"/. c #AB6B63",
"(. c #BC6168",
"). c #C5686D",
"_. c #9C8776",
"`. c #CA8348",
"'. c #DF8E4B",
"]. c #DF904F",
"[. c #D28F57",
"{. c #E8944F",
"}. c #F09A53",
"|. c #C7987E",
" X c #E6A571",
".X c #E1AB7E",
"XX c #892B81",
"oX c #8A2B83",
"OX c #882D82",
"+X c #8A2D83",
"@X c #8B2D84",
"#X c #8F2D87",
"$X c #8F2D88",
"%X c #932D8B",
"&X c #874780",
"*X c #8F518B",
"=X c #A16897",
"-X c #AC6FA4",
";X c #B47DAF",
":X c #BA7AB5",
">X c #918B85",
",X c #999794",
"<X c #9E9A96",
"1X c #BA9C85",
"2X c #A9A29D",
"3X c #AE93A7",
"4X c #B98DB6",
"5X c #B890B0",
"6X c #A6A6A5",
"7X c #B8AFA7",
"8X c #C0A792",
"9X c #C3AA96",
"0X c #C7AD96",
"qX c #CDAF95",
"wX c #E9B890",
"eX c #EDBE96",
"rX c #E9BD99",
"tX c #CAB7A7",
"yX c #CCB7A6",
"uX c #C1BAB4",
"iX c #C6BBB9",
"pX c #D9C5B4",
"aX c #D8C5B6",
"sX c #DBC8B7",
"dX c #D9C9BC",
"fX c #F6C8A1",
"gX c #F3CBA9",
"hX c #F7CFAF",
"jX c #CBA6C4",
"kX c #CCB7CB",
"lX c #D3CCC6",
"zX c #DDD8D4",
"xX c #DED7D8",
"cX c #DADADA",
"vX c #EAD4C3",
"bX c #E0CFDB",
"nX c #E7DED7",
"mX c #E4D9DF",
"MX c #EDDEEC",
"NX c #EAE8E5",
"BX c #F1E8EF",
"VX c #F3F1F0",
"CX c #F5F4F3",
"ZX c #F9F8F8",
"AX c #FDFDFD",
/* pixels */
"                            X X X X                             ",
"                        1 P ' ' ' E t                           ",
"                        p 5.#X%X%X+X,.s                         ",
"                        e ^ 0.#X%X%X%Xw.f                       ",
"                        e _ y.$X%X%X+Xr.%.u                     ",
"                        p 5.$X%X%X%X+Xp.r.:.s                   ",
"                      & M N.V.V.F.(.).).).).I.N                 ",
"                    @ w F l.l.l.c.'.}.}.}.}.}.`.B %             ",
"                  2 h ! +.D D D S.Q.!.~.^.^.^.^.R.&.i @         ",
"              2 h Q o.O.O.O.O.O.1.8.r.@X%X%X%X%X%X%Xw.#.i       ",
"          , h Q o.;.8.r.r.r.r.3.*./ ~ @.B.V.D.T.4._ E E g O     ",
"          e c V V Y ( 2.Y.E.E.k.h.g.z.v.n.M.K.H.s.4 X           ",
"                    @ d.2XuXuX7X_.U.].}.}.}.L.H q               ",
"                      f.cXAXAXNXqX[.{.}.}.}.x.9                 ",
"                      f.cXAXAXNXaX.X XwXgXhX0Xa.                ",
"                    < j.;X4XkXxXlXsXvXaX8X1XtX>X8               ",
"                  < U XX%X+X*X3XiXzXCXnXyX9XdX<Xl               ",
"                  s C.%X%X%Xp.W.=XjXBXAXAXAXAX6Xv X             ",
"                  s C.%X%X%Xp.r.@X:XMXAXAXAXAX6Xv X             ",
"                  , I XX%X+X1.8.@X:XMXAXAXAXAX6Xv X             ",
"                    , j ' [  .=.p.-XbXZXAXAXAX6Xk               ",
"                      X 7 c R | =.&X5XmXZXAXVX,X8               ",
"                        O 0 m A S A./.|.rXfXeXJ.4               ",
"                          : b G l.c.b.m.'.}.}.x.;               ",
"                          3 n C Z K L Z.G.P.P.J -               ",
"                          6 R { { X.-.,.0.r.r._ =               ",
"                        = z ..O.O.1.@X%X%X%X%Xw.f               ",
"                      = z ..O.O.O.1.@X%X%X%X%X%X$.,             ",
"                    = z ..O.O.O.O.1.@X%X%X%X%X%Xw.f             ",
"                  = z ..O.O.O.O.O.1.@X%X%X%X%X%X%X$.,           ",
"                  t | O.O.O.O.O.O.1.@X%X%X%X%X%X%X$.,           ",
"                  t | O.O.O.O.O.;.p.$X%X%X%X%X%X%X$.,           "
};
